<svg width="22" height="29" viewBox="0 0 22 29" fill="none" xmlns="http://www.w3.org/2000/svg">
<path d="M0.501974 3.09422V2.59222C0.224728 2.59222 -2.3578e-05 2.81697 -2.3578e-05 3.09422H0.501974ZM20.7749 3.09422H21.2769C21.2769 2.81697 21.0522 2.59222 20.7749 2.59222V3.09422ZM20.7749 25.9058L21.2425 26.0886V26.0886L20.7749 25.9058ZM0.501974 25.9058H-2.3578e-05C-2.3578e-05 25.9318 0.00199258 25.9577 0.00600674 25.9834L0.501974 25.9058ZM0.0965144 2.04088H21.1804V1.03689H0.0965144V2.04088ZM0.501974 3.59622H20.7749V2.59222H0.501974V3.59622ZM20.2729 3.09422C20.2729 6.98376 20.3092 12.597 20.3273 17.2791C20.3364 19.6212 20.3409 21.7302 20.3341 23.2764C20.3308 24.0498 20.3245 24.6799 20.3147 25.127C20.3098 25.3512 20.304 25.5254 20.2976 25.6472C20.2943 25.7087 20.2911 25.7516 20.2883 25.7786C20.2869 25.7924 20.2861 25.7969 20.2864 25.7951C20.2866 25.794 20.2876 25.788 20.2898 25.7787C20.2916 25.7713 20.2968 25.7502 20.3074 25.723L21.2425 26.0886C21.2647 26.0316 21.2736 25.9792 21.2766 25.9609C21.2812 25.9337 21.2845 25.906 21.2871 25.8809C21.2923 25.8302 21.2965 25.7688 21.3001 25.7006C21.3075 25.5631 21.3135 25.3766 21.3185 25.1491C21.3285 24.6929 21.3347 24.0557 21.3381 23.2808C21.3449 21.7301 21.3404 19.6175 21.3313 17.2752C21.3132 12.5884 21.2769 6.98135 21.2769 3.09422H20.2729ZM1.00397 25.9058V3.09422H-2.3578e-05V25.9058H1.00397ZM0.00600674 25.9834C0.0645369 26.3576 0.308419 26.7253 0.681495 27.0527C1.06145 27.3861 1.61074 27.7103 2.36123 27.9952C3.86128 28.5647 6.22549 29 9.82754 29V27.996C6.2935 27.996 4.06251 27.5672 2.71758 27.0566C2.04559 26.8015 1.60995 26.5317 1.3437 26.298C1.07058 26.0584 1.00699 25.886 0.997941 25.8282L0.00600674 25.9834ZM9.82754 29C13.4288 29 16.1134 28.6079 17.9646 28.073C18.8892 27.8058 19.6189 27.4993 20.1545 27.1791C20.6704 26.8707 21.0791 26.5064 21.2425 26.0886L20.3074 25.723C20.2681 25.8236 20.0989 26.0426 19.6393 26.3174C19.1992 26.5805 18.5554 26.8572 17.6859 27.1085C15.9487 27.6104 13.3624 27.996 9.82754 27.996V29ZM6.17841 1.00399H15.0985V0H6.17841V1.00399Z" fill="#006699"/>
</svg>
