<svg width="22" height="29" viewBox="0 0 22 29" fill="none" xmlns="http://www.w3.org/2000/svg">
<path fill-rule="evenodd" clip-rule="evenodd" d="M15.0985 1.00399H6.17843V0H15.0985V1.00399ZM21.1804 2.04088H0.096538V1.03689H21.1804V2.04088ZM0 3.09422C0 2.81697 0.224752 2.59222 0.501997 2.59222H20.775C21.0522 2.59222 21.277 2.81697 21.277 3.09422C21.277 5.70479 21.2933 9.09113 21.3096 12.4535C21.3175 14.0976 21.3254 15.736 21.3314 17.2752C21.3404 19.6175 21.345 21.7301 21.3382 23.2808C21.3348 24.0557 21.3285 24.6929 21.3185 25.1491C21.3135 25.3766 21.3075 25.5631 21.3002 25.7006C21.2965 25.7688 21.2923 25.8302 21.2871 25.8809C21.2845 25.906 21.2812 25.9337 21.2767 25.9609C21.2736 25.9792 21.2648 26.0316 21.2425 26.0886C21.0791 26.5064 20.6705 26.8707 20.1545 27.1791C19.6189 27.4993 18.8892 27.8058 17.9646 28.073C16.1134 28.6079 13.4288 29 9.82756 29C6.22551 29 3.8613 28.5647 2.36126 27.9952C1.61076 27.7103 1.06147 27.3861 0.681519 27.0527C0.308443 26.7253 0.0645605 26.3576 0.00603032 25.9834C0.00201616 25.9577 0 25.9318 0 25.9058V3.09422ZM1.00399 3.59622V25.8544C1.02565 25.9291 1.10393 26.0876 1.34373 26.298C1.60997 26.5317 2.04561 26.8015 2.71761 27.0566C4.06254 27.5672 6.29353 27.996 9.82756 27.996C13.3624 27.996 15.9487 27.6104 17.6859 27.1085C18.5555 26.8572 19.1992 26.5805 19.6393 26.3174C20.0498 26.072 20.2286 25.8711 20.2902 25.7592C20.2925 25.7325 20.295 25.6956 20.2976 25.6472C20.3041 25.5254 20.3098 25.3512 20.3147 25.127C20.3246 24.6799 20.3308 24.0498 20.3342 23.2764C20.341 21.7302 20.3364 19.6212 20.3274 17.2791C20.3214 15.7422 20.3135 14.1051 20.3056 12.4615C20.2904 9.30931 20.275 6.13345 20.2732 3.59622H1.00399Z" fill="#006699"/>
</svg>
