<svg width="29" height="26" viewBox="0 0 29 26" fill="none" xmlns="http://www.w3.org/2000/svg">
<path fill-rule="evenodd" clip-rule="evenodd" d="M14.1214 0C14.3975 0 14.6214 0.223858 14.6214 0.5V12.0677H28.5C28.7761 12.0677 29 12.2916 29 12.5677C29 12.8439 28.7761 13.0677 28.5 13.0677H14.6214V25.5C14.6214 25.7761 14.3975 26 14.1214 26C13.8452 26 13.6214 25.7761 13.6214 25.5V13.0677H0.5C0.223858 13.0677 0 12.8439 0 12.5677C0 12.2916 0.223858 12.0677 0.5 12.0677H13.6214V0.5C13.6214 0.223858 13.8452 0 14.1214 0Z" fill="#006699"/>
</svg>
